ply
format ascii 1.0
comment Created by Blender 2.77 (sub 0) - www.blender.org, source file: ''
element vertex 121
property float x
property float y
property float z
property float nx
property float ny
property float nz
property float s
property float t
element face 100
property list uchar uint vertex_indices
end_header
-0.005408 -0.130038 0.011498 -0.107212 0.976318 -0.187841 0.101796 0.447237
-0.067386 -0.109788 0.010896 0.331156 -0.935850 0.120304 0.043627 0.383584
0.041651 -0.124693 0.009388 0.288858 -0.956786 0.033021 0.196406 0.488709
-0.010598 -0.096103 -0.000862 -0.069979 -0.531236 -0.844295 0.133451 0.389358
0.043515 -0.087310 -0.000826 0.186132 -0.459761 -0.868282 0.235079 0.430222
0.084355 -0.100085 0.010865 0.928495 -0.302225 0.215674 0.295058 0.489681
-0.081703 -0.052002 -0.000956 -0.411451 -0.253975 -0.875301 0.071759 0.253682
-0.097526 -0.084146 0.009815 -0.762474 -0.640004 0.094852 0.008581 0.293708
-0.010598 -0.096103 -0.000862 -0.069979 -0.531236 -0.844295 0.392355 0.514805
-0.061418 -0.062658 -0.010620 -0.426832 -0.572008 -0.700400 0.313398 0.500687
-0.015788 -0.083010 -0.013871 -0.114902 -0.458510 -0.881222 0.380733 0.501640
-0.081703 -0.052002 -0.000956 -0.411451 -0.253975 -0.875301 0.289961 0.514470
0.084847 -0.050786 -0.000708 0.405988 -0.242531 -0.881069 0.332848 0.409229
0.111912 -0.069369 0.010638 0.470748 -0.853664 0.222755 0.360735 0.468970
0.043515 -0.087310 -0.000826 0.186132 -0.459761 -0.868282 0.493559 0.514450
0.053379 -0.071865 -0.013337 0.337168 -0.451338 -0.826197 0.505985 0.501134
0.084847 -0.050786 -0.000708 0.405988 -0.242531 -0.881069 0.548526 0.515625
-0.126066 -0.021774 0.010253 -0.859218 -0.468184 0.206091 0.021225 0.157570
-0.015788 -0.083010 -0.013871 -0.114902 -0.458510 -0.881222 0.136589 0.366841
0.057516 0.068286 -0.012565 0.461531 0.511612 -0.724693 0.399965 0.188339
0.053379 -0.071865 -0.013337 0.337168 -0.451338 -0.826197 0.261797 0.406135
0.128450 -0.031244 0.010168 0.966826 -0.241005 0.084445 0.424634 0.421519
-0.081600 -0.016998 -0.014240 -0.584704 -0.083468 -0.806909 0.101261 0.196572
-0.061418 -0.062658 -0.010620 -0.426832 -0.572008 -0.700400 0.086662 0.290485
0.053379 -0.071865 -0.013337 0.337168 -0.451338 -0.826197 0.243228 0.537198
0.087186 -0.010803 -0.013695 0.500778 -0.088137 -0.861049 0.159904 0.537403
0.084847 -0.050786 -0.000708 0.405988 -0.242531 -0.881069 0.235312 0.523485
0.099547 0.011891 -0.000575 0.486557 0.031983 -0.873043 0.414566 0.321531
0.099547 0.011891 -0.000575 0.486557 0.031983 -0.873043 0.118386 0.523996
-0.081703 -0.052002 -0.000956 -0.411451 -0.253975 -0.875301 0.225607 0.515339
-0.081600 -0.016998 -0.014240 -0.584704 -0.083468 -0.806909 0.175747 0.500987
-0.061418 -0.062658 -0.010620 -0.426832 -0.572008 -0.700400 0.251400 0.501337
0.131234 0.009730 0.011096 0.962432 0.056856 0.265450 0.467214 0.360165
0.087186 -0.010803 -0.013695 0.500778 -0.088137 -0.861049 0.375108 0.351064
0.128450 -0.031244 0.010168 0.966826 -0.241005 0.084445 0.522675 0.355550
0.131234 0.009730 0.011096 0.962432 0.056856 0.265450 0.510688 0.293361
0.111912 -0.069369 0.010638 0.470748 -0.853664 0.222755 0.574564 0.426674
-0.089788 0.028081 -0.004171 -0.410382 0.099063 -0.906491 0.120508 0.120330
-0.089788 0.028081 -0.004171 -0.410382 0.099063 -0.906491 0.092735 0.509784
0.121124 0.056565 0.010482 0.898556 0.417341 0.135655 0.489807 0.280356
-0.125810 0.025722 0.009554 -0.957030 -0.128086 0.260079 0.063245 0.085718
-0.059587 0.059805 -0.014813 -0.322123 0.329600 -0.887448 0.197117 0.092185
0.087754 0.040789 -0.005015 0.387066 0.177343 -0.904813 0.059993 0.534568
-0.089788 0.028081 -0.004171 -0.410382 0.099063 -0.906491 0.133719 0.125027
0.087754 0.040789 -0.005015 0.387066 0.177343 -0.904813 0.429047 0.226512
0.087754 0.040789 -0.005015 0.387066 0.177343 -0.904813 0.412831 0.277447
-0.016209 0.083752 -0.014756 -0.077517 0.419691 -0.904324 0.293480 0.094039
-0.109371 0.068783 0.008278 -0.832148 0.551683 0.055666 0.126134 0.034630
-0.069554 0.065657 -0.001534 -0.360729 0.372845 -0.854885 0.193779 0.074629
-0.069554 0.065657 -0.001534 -0.360729 0.372845 -0.854885 0.018066 0.514320
-0.059587 0.059805 -0.014813 -0.322123 0.329600 -0.887448 0.025960 0.502132
0.035390 0.089544 -0.003896 0.144902 0.453230 -0.879513 0.393822 0.140378
0.082397 0.102069 0.011465 0.387066 0.875210 0.290048 0.474999 0.155737
0.087754 0.040789 -0.005015 0.387066 0.177343 -0.904813 0.260835 0.568956
0.057516 0.068286 -0.012565 0.461531 0.511612 -0.724693 0.215344 0.580771
0.035390 0.089544 -0.003896 0.144902 0.453230 -0.879513 0.188729 0.572196
0.035390 0.089544 -0.003896 0.144902 0.453230 -0.879513 0.363506 0.127328
-0.059587 0.059805 -0.014813 -0.322123 0.329600 -0.887448 0.012177 0.579119
-0.019136 0.096082 -0.001789 -0.096164 0.494003 -0.864101 0.085802 0.568063
-0.016209 0.083752 -0.014756 -0.077517 0.419691 -0.904324 0.088199 0.580080
-0.069554 0.065657 -0.001534 -0.360729 0.372845 -0.854885 0.004914 0.565925
-0.075928 0.104412 0.010030 -0.564989 0.793268 0.226905 0.210952 0.004472
-0.019136 0.096082 -0.001789 -0.096164 0.494003 -0.864101 0.302709 0.077460
0.052866 0.119893 0.010916 0.194617 0.932646 0.303781 0.444844 0.102158
-0.034390 0.126326 0.009016 -0.272927 0.960753 0.048952 0.312398 0.009689
0.013718 0.130001 0.011153 0.154973 -0.965941 -0.207190 0.390225 0.046243
-0.005408 -0.130038 0.011498 -0.107212 0.976318 -0.187841 0.807509 0.484725
0.041651 -0.124693 0.009388 0.288858 -0.956786 0.033021 0.693849 0.491969
0.084355 -0.100085 0.010865 0.928495 -0.302225 0.215674 0.635007 0.468959
0.012428 -0.095084 0.000834 -0.069430 0.506455 0.859432 0.761638 0.428575
-0.051404 -0.080425 0.000780 0.225257 0.397382 0.889553 0.870538 0.374618
-0.067386 -0.109788 0.010896 0.331156 -0.935850 0.120304 0.912967 0.422743
0.077567 -0.062199 0.000772 -0.360820 0.288827 0.886746 0.632693 0.383548
0.077567 -0.062199 0.000772 -0.360820 0.288827 0.886746 0.231617 0.605777
0.066800 -0.055466 -0.012410 -0.345134 0.312113 0.885098 0.215475 0.618014
0.011323 -0.084447 -0.011911 -0.061586 0.488998 0.870083 0.130957 0.617796
0.012428 -0.095084 0.000834 -0.069430 0.506455 0.859432 0.137130 0.605692
-0.051404 -0.080425 0.000780 0.225257 0.397382 0.889553 0.026773 0.605059
-0.036387 -0.074547 -0.011733 0.184484 0.438154 0.879757 0.040667 0.616761
-0.080039 -0.043093 -0.004069 0.346141 0.193487 0.917997 0.923528 0.281885
-0.126066 -0.021774 0.010253 -0.859218 -0.468184 0.206091 0.990204 0.243285
-0.097526 -0.084146 0.009815 -0.762474 -0.640004 0.094852 0.959499 0.368817
-0.036387 -0.074547 -0.011733 0.184484 0.438154 0.879757 0.850159 0.373080
-0.080039 -0.043093 -0.004069 0.346141 0.193487 0.917997 0.903759 0.294661
0.011323 -0.084447 -0.011911 -0.061586 0.488998 0.870083 0.759462 0.407435
-0.082614 0.018350 -0.012707 0.502152 -0.139805 0.853359 0.890088 0.187619
0.098497 0.008183 0.000889 -0.507553 -0.026002 0.861202 0.568540 0.272533
0.066800 -0.055466 -0.012410 -0.345134 0.312113 0.885098 0.216795 0.546278
0.077567 -0.062199 0.000772 -0.360820 0.288827 0.886746 0.234591 0.557524
0.087543 0.009996 -0.012282 -0.492965 -0.061159 0.867855 0.118997 0.545745
0.098497 0.008183 0.000889 -0.507553 -0.026002 0.861202 0.120337 0.557831
0.066800 -0.055466 -0.012410 -0.345134 0.312113 0.885098 0.642766 0.372291
0.020710 0.085070 -0.010757 -0.181707 -0.523087 0.832667 0.681002 0.099572
-0.093025 0.014790 0.000066 0.493454 -0.074770 0.866512 0.915210 0.188363
-0.080039 -0.043093 -0.004069 0.346141 0.193487 0.917997 0.618253 0.503835
-0.082614 0.018350 -0.012707 0.502152 -0.139805 0.853359 0.730628 0.502237
-0.093025 0.014790 0.000066 0.493454 -0.074770 0.866512 0.724167 0.513311
-0.125810 0.025722 0.009554 -0.957030 -0.128086 0.260079 0.972333 0.156578
0.087543 0.009996 -0.012282 -0.492965 -0.061159 0.867855 0.589045 0.263482
-0.023462 0.080993 -0.012787 0.147099 -0.485946 0.861507 0.767892 0.087609
0.070029 0.068638 0.000109 -0.389508 -0.360759 0.847407 0.597627 0.151659
0.070029 0.068638 0.000109 -0.389508 -0.360759 0.847407 0.034995 0.559933
0.065713 0.060888 -0.009887 -0.399823 -0.345714 0.848872 0.026591 0.545416
0.082397 0.102069 0.011465 0.387066 0.875210 0.290048 0.551058 0.099443
-0.055552 0.076997 -0.001637 0.265481 -0.330851 0.905545 0.806167 0.507639
0.121124 0.056565 0.010482 0.898556 0.417341 0.135655 0.511837 0.176183
-0.055552 0.076997 -0.001637 0.265481 -0.330851 0.905545 0.833374 0.096130
-0.055552 0.076997 -0.001637 0.265481 -0.330851 0.905545 0.827217 0.103933
-0.075928 0.104412 0.010030 -0.564989 0.793268 0.226905 0.849107 0.033293
-0.109371 0.068783 0.008278 -0.832148 0.551683 0.055666 0.923721 0.077585
0.065713 0.060888 -0.009887 -0.399823 -0.345714 0.848872 0.606812 0.162433
0.065713 0.060888 -0.009887 -0.399823 -0.345714 0.848872 0.219853 0.586822
0.070029 0.068638 0.000109 -0.389508 -0.360759 0.847407 0.233377 0.598883
0.020710 0.085070 -0.010757 -0.181707 -0.523087 0.832667 0.154004 0.586360
0.007117 0.096647 0.000561 -0.016114 -0.504227 0.863399 0.127628 0.599045
0.052866 0.119893 0.010916 0.194617 0.932646 0.303781 0.613952 0.043158
0.007117 0.096647 0.000561 -0.016114 -0.504227 0.863399 0.702062 0.075215
0.013718 0.130001 0.011153 0.154973 -0.965941 -0.207190 0.674286 0.014108
-0.023462 0.080993 -0.012787 0.147099 -0.485946 0.861507 0.073997 0.586088
-0.055552 0.076997 -0.001637 0.265481 -0.330851 0.905545 0.022921 0.594605
-0.034390 0.126326 0.009016 -0.272927 0.960753 0.048952 0.774573 0.005088
3 0 1 2
3 2 3 4
3 2 1 3
3 2 4 5
3 1 6 3
3 1 7 6
3 8 9 10
3 8 11 9
3 5 12 13
3 5 4 12
3 14 15 16
3 8 15 14
3 8 10 15
3 7 17 6
3 18 19 20
3 13 12 21
3 18 22 19
3 18 23 22
3 24 25 26
3 12 27 21
3 26 25 28
3 29 30 31
3 21 27 32
3 20 19 33
3 34 35 36
3 6 17 37
3 29 38 30
3 32 27 39
3 17 40 37
3 22 41 19
3 25 42 28
3 22 43 41
3 27 44 39
3 33 19 45
3 41 46 19
3 40 47 37
3 37 47 48
3 38 49 50
3 44 51 52
3 44 52 39
3 53 54 55
3 19 46 56
3 57 58 59
3 57 60 58
3 48 47 61
3 48 61 62
3 51 63 52
3 62 61 64
3 55 59 58
3 51 62 63
3 62 64 63
3 63 64 65
3 66 67 68
3 66 68 69
3 66 69 70
3 66 70 71
3 68 72 69
3 68 36 72
3 73 74 75
3 73 75 76
3 76 75 77
3 77 75 78
3 70 79 71
3 36 35 72
3 71 80 81
3 82 83 70
3 71 79 80
3 82 84 85
3 35 86 72
3 83 82 85
3 87 88 89
3 88 90 89
3 84 91 92
3 84 92 85
3 79 93 80
3 94 95 96
3 80 93 97
3 98 92 91
3 92 99 85
3 86 35 100
3 89 101 102
3 89 90 101
3 35 103 100
3 95 104 96
3 35 105 103
3 93 106 97
3 85 99 107
3 106 108 97
3 97 108 109
3 98 110 92
3 111 112 113
3 112 114 113
3 103 115 100
3 116 115 117
3 116 100 115
3 113 114 118
3 118 114 119
3 108 106 117
3 106 116 117
3 108 117 120
