ply
format ascii 1.0
comment Created by Blender 2.77 (sub 0) - www.blender.org, source file: ''
element vertex 597
property float x
property float y
property float z
property float nx
property float ny
property float nz
property float s
property float t
element face 199
property list uchar uint vertex_indices
end_header
-0.010171 0.035586 0.032159 -0.213056 0.497802 0.840714 0.031131 0.100850
0.007485 0.037117 0.035727 -0.213056 0.497802 0.840714 0.007526 0.178648
-0.004004 0.038013 0.032285 -0.213056 0.497802 0.840714 0.009929 0.125471
-0.010183 0.037993 0.034787 0.036327 0.992276 0.118615 0.399980 0.189314
0.011495 0.037298 0.033957 0.036327 0.992276 0.118615 0.405103 0.090617
0.003718 0.038895 0.022984 0.036327 0.992276 0.118615 0.458662 0.130343
-0.015062 0.034475 0.034246 0.114664 -0.606728 0.786596 0.909809 0.647605
-0.023851 0.030160 0.032199 0.114664 -0.606728 0.786596 0.947740 0.653662
-0.017524 0.031855 0.032584 0.114664 -0.606728 0.786596 0.921165 0.654031
-0.015437 0.034116 0.034770 0.430250 -0.800516 0.417205 0.037771 0.078821
-0.017524 0.031855 0.032584 0.430250 -0.800516 0.417205 0.052356 0.070499
-0.010171 0.035586 0.032159 0.430250 -0.800516 0.417205 0.031406 0.100633
-0.004004 0.038013 0.032285 0.034408 0.989163 0.142731 0.009929 0.125471
0.007485 0.037117 0.035727 0.034408 0.989163 0.142731 0.007526 0.178648
0.013964 0.036969 0.035191 0.034408 0.989163 0.142731 0.002045 0.207282
-0.024305 0.030173 0.034891 -0.659158 0.565296 0.495935 0.682047 0.374028
-0.030456 0.025182 0.032405 -0.659158 0.565296 0.495935 0.657861 0.388545
-0.036096 0.016735 0.034537 -0.659158 0.565296 0.495935 0.619650 0.382467
-0.027283 0.026742 0.037588 0.473925 -0.478924 0.738937 0.083217 0.030871
-0.032691 0.017485 0.035057 0.473925 -0.478924 0.738937 0.130538 0.014163
-0.015437 0.034116 0.034770 0.473925 -0.478924 0.738937 0.039396 0.077278
-0.017524 0.031855 0.032584 0.475101 -0.865911 0.156451 0.921165 0.654031
-0.011419 0.029694 0.002083 0.475101 -0.865911 0.156451 0.897592 0.794609
-0.010080 0.035987 0.032847 0.475101 -0.865911 0.156451 0.887647 0.655417
-0.017524 0.031855 0.032584 0.250205 -0.960954 0.118170 0.921165 0.654031
-0.023851 0.030160 0.032199 0.250205 -0.960954 0.118170 0.947740 0.653662
-0.011419 0.029694 0.002083 0.250205 -0.960954 0.118170 0.897592 0.794609
0.013964 0.036969 0.035191 0.084377 0.102356 0.991163 0.002045 0.207282
0.007485 0.037117 0.035727 0.084377 0.102356 0.991163 0.007526 0.178648
0.029815 0.026028 0.034972 0.084377 0.102356 0.991163 0.033684 0.288433
0.011495 0.037298 0.033957 0.403346 0.901881 -0.154673 0.405103 0.090617
0.029225 0.026111 0.014961 0.403346 0.901881 -0.154673 0.492280 0.012499
0.003718 0.038895 0.022984 0.403346 0.901881 -0.154673 0.458662 0.130343
-0.028842 0.024210 0.032576 -0.598030 0.780176 0.183538 0.401485 0.278050
-0.010183 0.037993 0.034787 -0.598030 0.780176 0.183538 0.399980 0.189314
-0.025529 0.029031 0.022876 -0.598030 0.780176 0.183538 0.447243 0.259834
0.009456 0.036629 0.034850 -0.388012 -0.908260 0.156561 0.797703 0.650266
0.007088 0.031557 -0.000443 -0.388012 -0.908260 0.156561 0.812960 0.809830
0.016810 0.033254 0.033496 -0.388012 -0.908260 0.156561 0.763588 0.654995
0.009456 0.036629 0.034850 -0.087034 -0.985236 0.147430 0.797703 0.650266
0.000335 0.032163 -0.000378 -0.087034 -0.985236 0.147430 0.843988 0.809363
0.007088 0.031557 -0.000443 -0.087034 -0.985236 0.147430 0.812960 0.809830
0.009456 0.036629 0.034850 0.020275 -0.992498 0.120566 0.797703 0.650266
-0.010080 0.035987 0.032847 0.020275 -0.992498 0.120566 0.887647 0.655417
0.000335 0.032163 -0.000378 0.020275 -0.992498 0.120566 0.843988 0.809363
0.011495 0.037298 0.033957 0.380631 0.907232 -0.179024 0.405103 0.090617
0.021131 0.033589 0.035648 0.380631 0.907232 -0.179024 0.401320 0.047609
0.029225 0.026111 0.014961 0.380631 0.907232 -0.179024 0.492280 0.012499
-0.030456 0.025182 0.032405 -0.702775 0.700490 -0.124183 0.657861 0.388545
-0.025285 0.028698 0.022975 -0.702775 0.700490 -0.124183 0.678556 0.429661
-0.027852 0.024949 0.016354 -0.702775 0.700490 -0.124183 0.660185 0.462248
-0.010183 0.037993 0.034787 -0.304906 0.907242 -0.289731 0.399980 0.189314
0.003718 0.038895 0.022984 -0.304906 0.907242 -0.289731 0.458662 0.130343
-0.025529 0.029031 0.022876 -0.304906 0.907242 -0.289731 0.447243 0.259834
0.029815 0.026028 0.034972 0.056593 0.045985 0.997338 0.033684 0.288433
0.007485 0.037117 0.035727 0.056593 0.045985 0.997338 0.007526 0.178648
0.033168 0.020764 0.035024 0.056593 0.045985 0.997338 0.054169 0.308479
0.021131 0.033589 0.035648 0.746585 0.663227 0.052347 0.401320 0.047609
0.030672 0.023989 0.021207 0.746585 0.663227 0.052347 0.464283 0.002379
0.029225 0.026111 0.014961 0.746585 0.663227 0.052347 0.492280 0.012499
0.021131 0.033589 0.035648 0.652080 0.754820 -0.070981 0.401320 0.047609
0.029804 0.026049 0.035136 0.652080 0.754820 -0.070981 0.400463 0.003901
0.030672 0.023989 0.021207 0.652080 0.754820 -0.070981 0.464283 0.002379
0.016810 0.033254 0.033496 -0.663102 -0.746810 -0.050699 0.763588 0.654995
0.026740 0.025046 0.024524 -0.663102 -0.746810 -0.050699 0.718339 0.695282
0.029925 0.021516 0.034871 -0.663102 -0.746810 -0.050699 0.698011 0.651711
-0.022555 0.028113 0.033476 0.708049 -0.697768 0.108569 0.832007 0.266366
-0.032411 0.018240 0.034294 0.708049 -0.697768 0.108569 0.822279 0.221448
-0.023247 0.022642 0.002830 0.708049 -0.697768 0.108569 0.969309 0.222484
-0.032691 0.017485 0.035057 0.391852 -0.448568 0.803268 0.130538 0.014163
-0.027283 0.026742 0.037588 0.391852 -0.448568 0.803268 0.083217 0.030871
-0.036006 0.014308 0.034900 0.391852 -0.448568 0.803268 0.148426 0.003868
0.003718 0.038895 0.022984 -0.315958 0.938380 -0.140050 0.458662 0.130343
0.005028 0.033184 -0.018232 -0.315958 0.938380 -0.140050 0.645653 0.131345
-0.025529 0.029031 0.022876 -0.315958 0.938380 -0.140050 0.447243 0.259834
-0.011419 0.029694 0.002083 0.513324 -0.828249 0.224726 0.897592 0.794609
-0.023851 0.030160 0.032199 0.513324 -0.828249 0.224726 0.947740 0.653662
-0.022931 0.022661 0.002461 0.513324 -0.828249 0.224726 0.949378 0.790073
-0.010080 0.035987 0.032847 0.238949 -0.953322 0.184608 0.887647 0.655417
-0.011419 0.029694 0.002083 0.238949 -0.953322 0.184608 0.897592 0.794609
0.000335 0.032163 -0.000378 0.238949 -0.953322 0.184608 0.843988 0.809363
0.016810 0.033254 0.033496 -0.446281 -0.878257 0.171752 0.763588 0.654995
0.007088 0.031557 -0.000443 -0.446281 -0.878257 0.171752 0.812960 0.809830
0.026275 0.021569 -0.001663 -0.446281 -0.878257 0.171752 0.726434 0.813511
-0.027852 0.024949 0.016354 -0.839392 0.524162 -0.143786 0.660185 0.462248
-0.036096 0.016735 0.034537 -0.839392 0.524162 -0.143786 0.619650 0.382467
-0.030456 0.025182 0.032405 -0.839392 0.524162 -0.143786 0.657861 0.388545
0.016810 0.033254 0.033496 -0.566934 -0.815221 0.118324 0.763588 0.654995
0.026275 0.021569 -0.001663 -0.566934 -0.815221 0.118324 0.726434 0.813511
0.026740 0.025046 0.024524 -0.566934 -0.815221 0.118324 0.718339 0.695282
0.003718 0.038895 0.022984 0.416938 0.902043 -0.111721 0.458662 0.130343
0.029225 0.026111 0.014961 0.416938 0.902043 -0.111721 0.492280 0.012499
0.005028 0.033184 -0.018232 0.416938 0.902043 -0.111721 0.645653 0.131345
0.033168 0.020764 0.035024 -0.562771 -0.359156 0.744510 0.054169 0.308479
0.029951 0.022741 0.033546 -0.562771 -0.359156 0.744510 0.048732 0.292485
0.033687 0.017144 0.033670 -0.562771 -0.359156 0.744510 0.070376 0.314435
-0.025529 0.029031 0.022876 -0.918851 0.376054 -0.119566 0.447243 0.259834
-0.024314 0.024228 -0.001574 -0.918851 0.376054 -0.119566 0.559123 0.259566
-0.026832 0.023877 0.016673 -0.918851 0.376054 -0.119566 0.475248 0.272687
0.029225 0.026111 0.014961 0.381193 0.920883 -0.081648 0.492280 0.012499
0.022824 0.026937 -0.005610 0.381193 0.920883 -0.081648 0.587680 0.043774
0.005028 0.033184 -0.018232 0.381193 0.920883 -0.081648 0.645653 0.131345
-0.032411 0.018240 0.034294 0.945367 -0.296003 0.136618 0.822279 0.221448
-0.036361 0.004471 0.031796 0.945367 -0.296003 0.136618 0.825644 0.156219
-0.029596 0.011783 0.000829 0.945367 -0.296003 0.136618 0.971322 0.172869
-0.032411 0.018240 0.034294 0.836571 -0.520556 0.170796 0.822279 0.221448
-0.029596 0.011783 0.000829 0.836571 -0.520556 0.170796 0.971322 0.172869
-0.023247 0.022642 0.002830 0.836571 -0.520556 0.170796 0.969309 0.222484
-0.027852 0.024949 0.016354 -0.789858 0.607558 -0.083653 0.660185 0.462248
-0.026321 0.024888 0.001456 -0.789858 0.607558 -0.083653 0.663918 0.529952
-0.036096 0.016735 0.034537 -0.789858 0.607558 -0.083653 0.619650 0.382467
0.029225 0.026111 0.014961 0.752836 0.624079 -0.209198 0.492280 0.012499
0.027917 0.023429 0.002253 0.752836 0.624079 -0.209198 0.551139 0.018570
0.022824 0.026937 -0.005610 0.752836 0.624079 -0.209198 0.587680 0.043774
-0.036006 0.014308 0.034900 -0.059204 0.012481 0.998168 0.148426 0.003868
-0.039052 0.000177 0.034896 -0.059204 0.012481 0.998168 0.214204 0.002236
-0.032691 0.017485 0.035057 -0.059204 0.012481 0.998168 0.130538 0.014163
-0.032411 0.018240 0.034294 0.888163 -0.315427 0.334174 0.822279 0.221448
-0.039052 0.000177 0.034896 0.888163 -0.315427 0.334174 0.809437 0.138146
-0.036361 0.004471 0.031796 0.888163 -0.315427 0.334174 0.825644 0.156219
0.026723 0.024985 0.024541 -0.746452 -0.652351 0.131328 0.687024 0.940596
0.025715 0.020929 -0.001337 -0.746452 -0.652351 0.131328 0.703654 0.820351
0.030200 0.022841 0.033652 -0.746452 -0.652351 0.131328 0.696830 0.982596
0.033687 0.017144 0.033670 -0.646369 -0.284906 0.707839 0.070376 0.314435
0.036656 0.010038 0.033521 -0.646369 -0.284906 0.707839 0.099604 0.334384
0.036234 0.014978 0.035124 -0.646369 -0.284906 0.707839 0.077296 0.327590
0.028500 0.025153 0.015617 0.604730 0.787134 -0.121335 0.307086 0.656086
0.030903 0.024157 0.021130 0.604730 0.787134 -0.121335 0.333919 0.661303
0.027989 0.023486 0.002260 0.604730 0.787134 -0.121335 0.245863 0.665402
0.005028 0.033184 -0.018232 0.402900 0.907491 -0.118882 0.645653 0.131345
0.022824 0.026937 -0.005610 0.402900 0.907491 -0.118882 0.587680 0.043774
0.021990 0.024310 -0.028487 0.402900 0.907491 -0.118882 0.692287 0.051759
0.030810 0.026828 0.035479 0.924905 0.374804 -0.063820 0.398087 0.650632
0.037433 0.003238 -0.007076 0.924905 0.374804 -0.063820 0.207709 0.761899
0.030903 0.024157 0.021130 0.924905 0.374804 -0.063820 0.333919 0.661303
0.036234 0.014978 0.035124 -0.758649 -0.197222 0.620931 0.615127 0.367613
0.036816 0.009185 0.033996 -0.758649 -0.197222 0.620931 0.588943 0.376291
0.039046 0.005962 0.035696 -0.758649 -0.197222 0.620931 0.573678 0.366982
0.036234 0.014978 0.035124 -0.184883 0.004685 0.982749 0.077296 0.327590
0.039046 0.005962 0.035696 -0.184883 0.004685 0.982749 0.115043 0.348438
0.040952 0.006226 0.036053 -0.184883 0.004685 0.982749 0.114471 0.355266
-0.039052 0.000177 0.034896 0.984353 -0.017785 -0.175306 0.214204 0.002236
-0.039273 -0.008634 0.034547 0.984353 -0.017785 -0.175306 0.253973 0.009605
-0.040093 0.002665 0.028796 0.984353 -0.017785 -0.175306 0.199913 0.011717
-0.036361 0.004471 0.031796 0.971650 -0.159391 0.174614 0.825644 0.156219
-0.030926 0.004790 0.001844 0.971650 -0.159391 0.174614 0.962835 0.141650
-0.029596 0.011783 0.000829 0.971650 -0.159391 0.174614 0.971322 0.172869
-0.036361 0.004471 0.031796 0.979604 -0.095604 0.176737 0.825644 0.156219
-0.032003 -0.005971 0.001996 0.979604 -0.095604 0.176737 0.958581 0.093052
-0.030926 0.004790 0.001844 0.979604 -0.095604 0.176737 0.962835 0.141650
-0.036361 0.004471 0.031796 0.984924 -0.056046 0.163653 0.825644 0.156219
-0.037353 -0.005116 0.034484 0.984924 -0.056046 0.163653 0.808567 0.114367
-0.032003 -0.005971 0.001996 0.984924 -0.056046 0.163653 0.958581 0.093052
0.005028 0.033184 -0.018232 -0.276952 0.954634 -0.109414 0.645653 0.131345
-0.016394 0.024549 -0.039351 -0.276952 0.954634 -0.109414 0.735596 0.229262
-0.025529 0.029031 0.022876 -0.276952 0.954634 -0.109414 0.447243 0.259834
0.005028 0.033184 -0.018232 -0.292561 0.951771 -0.092410 0.645653 0.131345
-0.001915 0.027915 -0.050522 -0.292561 0.951771 -0.092410 0.789164 0.165612
-0.016394 0.024549 -0.039351 -0.292561 0.951771 -0.092410 0.735596 0.229262
-0.024314 0.024228 -0.001574 -0.973037 0.212326 -0.090095 0.559123 0.259566
-0.025529 0.029031 0.022876 -0.973037 0.212326 -0.090095 0.447243 0.259834
-0.022785 0.023129 -0.020673 -0.973037 0.212326 -0.090095 0.646707 0.255253
-0.036096 0.016735 0.034537 -0.909492 0.376672 -0.175906 0.619650 0.382467
-0.026321 0.024888 0.001456 -0.909492 0.376672 -0.175906 0.663918 0.529952
-0.033347 0.000744 -0.013918 -0.909492 0.376672 -0.175906 0.560787 0.605830
-0.036096 0.016735 0.034537 -0.991558 0.095453 -0.087755 0.619650 0.382467
-0.033347 0.000744 -0.013918 -0.991558 0.095453 -0.087755 0.560787 0.605830
-0.038937 -0.012814 0.034507 -0.991558 0.095453 -0.087755 0.485110 0.390434
0.030810 0.026828 0.035479 0.899344 0.426473 -0.096441 0.398087 0.650632
0.041371 0.004627 0.035789 0.899344 0.426473 -0.096441 0.402854 0.748774
0.037433 0.003238 -0.007076 0.899344 0.426473 -0.096441 0.207709 0.761899
0.027989 0.023486 0.002260 0.867455 0.474118 -0.150777 0.245863 0.665402
0.030903 0.024157 0.021130 0.867455 0.474118 -0.150777 0.333919 0.661303
0.037433 0.003238 -0.007076 0.867455 0.474118 -0.150777 0.207709 0.761899
0.022824 0.026937 -0.005610 0.603108 0.789664 -0.112656 0.587680 0.043774
0.024318 0.024082 -0.017624 0.603108 0.789664 -0.112656 0.642505 0.038920
0.021990 0.024310 -0.028487 0.603108 0.789664 -0.112656 0.692287 0.051759
0.022824 0.026937 -0.005610 0.651524 0.752303 -0.097757 0.208304 0.650185
0.027989 0.023486 0.002260 0.651524 0.752303 -0.097757 0.245863 0.665402
0.024318 0.024082 -0.017624 0.651524 0.752303 -0.097757 0.153105 0.664149
0.030200 0.022841 0.033652 -0.899578 -0.424567 0.102480 0.696830 0.982596
0.031722 0.011405 -0.000368 -0.899578 -0.424567 0.102480 0.746811 0.824707
0.038049 0.006214 0.033672 -0.899578 -0.424567 0.102480 0.773324 0.984051
0.030200 0.022841 0.033652 -0.844118 -0.518482 0.136532 0.696830 0.982596
0.025715 0.020929 -0.001337 -0.844118 -0.518482 0.136532 0.703654 0.820351
0.031722 0.011405 -0.000368 -0.844118 -0.518482 0.136532 0.746811 0.824707
-0.023235 0.023984 -0.004836 0.107191 0.990176 -0.089789 0.666172 0.559356
-0.022511 0.022322 -0.022296 0.107191 0.990176 -0.089789 0.662073 0.640227
-0.026321 0.024888 0.001456 0.107191 0.990176 -0.089789 0.663918 0.529952
-0.025529 0.029031 0.022876 -0.500980 0.852856 -0.147159 0.447243 0.259834
-0.019006 0.023238 -0.032905 -0.500980 0.852856 -0.147159 0.704566 0.241035
-0.022785 0.023129 -0.020673 -0.500980 0.852856 -0.147159 0.646707 0.255253
-0.025529 0.029031 0.022876 -0.720615 0.675909 -0.154468 0.447243 0.259834
-0.016394 0.024549 -0.039351 -0.720615 0.675909 -0.154468 0.735596 0.229262
-0.019006 0.023238 -0.032905 -0.720615 0.675909 -0.154468 0.704566 0.241035
-0.037353 -0.005116 0.034484 0.955661 0.252986 0.150701 0.808567 0.114367
-0.035623 -0.010695 0.032879 0.955661 0.252986 0.150701 0.812077 0.087704
-0.032003 -0.005971 0.001996 0.955661 0.252986 0.150701 0.958581 0.093052
0.039046 0.005962 0.035696 -0.554248 0.054783 0.830546 0.573678 0.366982
0.036816 0.009185 0.033996 -0.554248 0.054783 0.830546 0.588943 0.376291
0.036003 -0.019661 0.035356 -0.554248 0.054783 0.830546 0.457787 0.374497
0.039046 0.005962 0.035696 -0.167013 -0.119015 0.978745 0.115043 0.348438
0.039146 -0.012928 0.033416 -0.167013 -0.119015 0.978745 0.183766 0.348651
0.040952 0.006226 0.036053 -0.167013 -0.119015 0.978745 0.114471 0.355266
-0.040093 0.002665 0.028796 0.799347 0.317641 0.510048 0.199913 0.011717
-0.039273 -0.008634 0.034547 0.799347 0.317641 0.510048 0.253973 0.009605
-0.036498 -0.013359 0.033140 0.799347 0.317641 0.510048 0.273691 0.028653
-0.037353 -0.005116 0.034484 0.866361 0.129942 0.482217 0.808567 0.114367
-0.036035 -0.013645 0.034415 0.866361 0.129942 0.482217 0.803424 0.074966
-0.035623 -0.010695 0.032879 0.866361 0.129942 0.482217 0.812077 0.087704
-0.022511 0.022322 -0.022296 -0.065968 0.990863 -0.117637 0.662073 0.640227
-0.022619 0.020328 -0.039029 -0.065968 0.990863 -0.117637 0.653638 0.715380
-0.026321 0.024888 0.001456 -0.065968 0.990863 -0.117637 0.663918 0.529952
-0.022511 0.022322 -0.022296 -0.518304 0.849577 -0.097883 0.662073 0.640227
-0.019006 0.023238 -0.032905 -0.518304 0.849577 -0.097883 0.669420 0.688470
-0.022619 0.020328 -0.039029 -0.518304 0.849577 -0.097883 0.653638 0.715380
0.027989 0.023486 0.002260 0.723445 0.681044 -0.113170 0.245863 0.665402
0.026733 0.020448 -0.024056 0.723445 0.681044 -0.113170 0.124019 0.681508
0.024318 0.024082 -0.017624 0.723445 0.681044 -0.113170 0.153105 0.664149
0.027989 0.023486 0.002260 0.884691 0.456409 -0.094932 0.245863 0.665402
0.037433 0.003238 -0.007076 0.884691 0.456409 -0.094932 0.207709 0.761899
0.026733 0.020448 -0.024056 0.884691 0.456409 -0.094932 0.124019 0.681508
0.024318 0.024082 -0.017624 0.709502 0.691152 -0.137532 0.642505 0.038920
0.026672 0.020387 -0.024049 0.709502 0.691152 -0.137532 0.671384 0.028991
0.021990 0.024310 -0.028487 0.709502 0.691152 -0.137532 0.692287 0.051759
0.005028 0.033184 -0.018232 0.353778 0.912674 -0.204617 0.645653 0.131345
0.021990 0.024310 -0.028487 0.353778 0.912674 -0.204617 0.692287 0.051759
0.023810 0.021857 -0.036283 0.353778 0.912674 -0.204617 0.727462 0.045883
0.038049 0.006214 0.033672 -0.948680 -0.287110 0.132568 0.773324 0.984051
0.031722 0.011405 -0.000368 -0.948680 -0.287110 0.132568 0.746811 0.824707
0.034372 0.003533 0.001553 -0.948680 -0.287110 0.132568 0.783495 0.832990
-0.036035 -0.013645 0.034415 0.546032 0.058764 0.835701 0.803424 0.074966
-0.032021 -0.025695 0.032639 0.546032 0.058764 0.835701 0.798602 0.026473
-0.033067 -0.017671 0.032759 0.546032 0.058764 0.835701 0.808306 0.055861
-0.036498 -0.013359 0.033140 0.731964 0.319970 0.601538 0.273691 0.028653
-0.031867 -0.026283 0.034379 0.731964 0.319970 0.601538 0.324238 0.060875
-0.027092 -0.030542 0.030834 0.731964 0.319970 0.601538 0.331339 0.092866
-0.036498 -0.013359 0.033140 0.813782 0.337004 0.473484 0.273691 0.028653
-0.039273 -0.008634 0.034547 0.813782 0.337004 0.473484 0.253973 0.009605
-0.031867 -0.026283 0.034379 0.813782 0.337004 0.473484 0.324238 0.060875
0.005028 0.033184 -0.018232 0.075749 0.981393 -0.176436 0.645653 0.131345
0.012174 0.026834 -0.050489 0.075749 0.981393 -0.176436 0.792386 0.101584
-0.001915 0.027915 -0.050522 0.075749 0.981393 -0.176436 0.789164 0.165612
-0.019006 0.023238 -0.032905 -0.573962 0.816175 -0.066524 0.704566 0.241035
-0.016394 0.024549 -0.039351 -0.573962 0.816175 -0.066524 0.735596 0.229262
-0.021135 0.021383 -0.037295 -0.573962 0.816175 -0.066524 0.723816 0.251502
-0.026321 0.024888 0.001456 -0.928704 0.349381 -0.124268 0.663918 0.529952
-0.022619 0.020328 -0.039029 -0.928704 0.349381 -0.124268 0.653638 0.715380
-0.033347 0.000744 -0.013918 -0.928704 0.349381 -0.124268 0.560787 0.605830
0.036816 0.009185 0.033996 -0.908270 0.045210 0.415936 0.588943 0.376291
0.035487 -0.019538 0.034215 -0.908270 0.045210 0.415936 0.459963 0.385202
0.036003 -0.019661 0.035356 -0.908270 0.045210 0.415936 0.457787 0.374497
0.005028 0.033184 -0.018232 0.464243 0.882860 -0.070965 0.645653 0.131345
0.023810 0.021857 -0.036283 0.464243 0.882860 -0.070965 0.727462 0.045883
0.012174 0.026834 -0.050489 0.464243 0.882860 -0.070965 0.792386 0.101584
-0.035623 -0.010695 0.032879 0.927733 0.337072 0.160292 0.812077 0.087704
-0.033067 -0.017671 0.032759 0.927733 0.337072 0.160292 0.808306 0.055861
-0.032003 -0.005971 0.001996 0.927733 0.337072 0.160292 0.958581 0.093052
-0.016140 0.024411 -0.039369 -0.588713 0.600518 -0.541106 0.718528 0.609846
-0.022731 0.017982 -0.039333 -0.588713 0.600518 -0.541106 0.753256 0.634108
-0.021135 0.021383 -0.037295 -0.588713 0.600518 -0.541106 0.735903 0.630246
0.021977 0.024282 -0.028485 0.682915 0.722488 -0.107884 0.102415 0.664203
0.026733 0.020448 -0.024056 0.682915 0.722488 -0.107884 0.124019 0.681508
0.026830 0.019356 -0.030754 0.682915 0.722488 -0.107884 0.093050 0.686750
0.021990 0.024310 -0.028487 0.700019 0.711559 -0.060479 0.692287 0.051759
0.026830 0.019356 -0.030754 0.700019 0.711559 -0.060479 0.702041 0.029441
0.023810 0.021857 -0.036283 0.700019 0.711559 -0.060479 0.727462 0.045883
0.026733 0.020448 -0.024056 0.880683 0.466529 -0.082150 0.124019 0.681508
0.037433 0.003238 -0.007076 0.880683 0.466529 -0.082150 0.207709 0.761899
0.028929 0.011811 -0.049566 0.880683 0.466529 -0.082150 0.007029 0.722059
-0.038937 -0.012814 0.034507 -0.865040 -0.491384 -0.101232 0.485110 0.390434
-0.027218 -0.024762 -0.007646 -0.865040 -0.491384 -0.101232 0.459849 0.597194
-0.031317 -0.026457 0.035610 -0.865040 -0.491384 -0.101232 0.422000 0.388050
-0.038937 -0.012814 0.034507 -0.944162 -0.272444 -0.185288 0.485110 0.390434
-0.033347 0.000744 -0.013918 -0.944162 -0.272444 -0.185288 0.560787 0.605830
-0.027218 -0.024762 -0.007646 -0.944162 -0.272444 -0.185288 0.459849 0.597194
0.026733 0.020448 -0.024056 0.924927 0.377094 -0.048061 0.124019 0.681508
0.028929 0.011811 -0.049566 0.924927 0.377094 -0.048061 0.007029 0.722059
0.026830 0.019356 -0.030754 0.924927 0.377094 -0.048061 0.093050 0.686750
0.041371 0.004627 0.035789 0.994329 -0.057462 -0.089481 0.402854 0.748774
0.040778 -0.006275 0.036204 0.994329 -0.057462 -0.089481 0.404586 0.797611
0.037433 0.003238 -0.007076 0.994329 -0.057462 -0.089481 0.207709 0.761899
0.023524 0.021544 -0.036225 0.678330 0.724893 -0.119995 0.067017 0.677301
0.026830 0.019356 -0.030754 0.678330 0.724893 -0.119995 0.093050 0.686750
0.025671 0.018063 -0.045115 0.678330 0.724893 -0.119995 0.026393 0.693580
0.038049 0.006214 0.033672 -0.995731 0.046599 0.079671 0.773324 0.984051
0.034966 -0.001990 -0.000064 -0.995731 0.046599 0.079671 0.808460 0.825897
0.037108 -0.014085 0.033781 -0.995731 0.046599 0.079671 0.864430 0.984524
0.038049 0.006214 0.033672 -0.982045 -0.141935 0.124270 0.773324 0.984051
0.034372 0.003533 0.001553 -0.982045 -0.141935 0.124270 0.783495 0.832990
0.034966 -0.001990 -0.000064 -0.982045 -0.141935 0.124270 0.808460 0.825897
-0.033067 -0.017671 0.032759 0.896013 0.110474 0.430066 0.808306 0.055861
-0.032021 -0.025695 0.032639 0.896013 0.110474 0.430066 0.798602 0.026473
-0.028062 -0.023691 0.023877 0.896013 0.110474 0.430066 0.845083 0.023780
-0.016379 0.024416 -0.039393 -0.523216 0.765218 -0.375081 0.676482 0.718033
-0.021915 0.015228 -0.050416 -0.523216 0.765218 -0.375081 0.639384 0.771080
-0.022619 0.020328 -0.039029 -0.523216 0.765218 -0.375081 0.653638 0.715380
-0.016394 0.024549 -0.039351 -0.463419 0.811409 -0.356172 0.735596 0.229262
-0.001915 0.027915 -0.050522 -0.463419 0.811409 -0.356172 0.789164 0.165612
-0.022180 0.016585 -0.049967 -0.463419 0.811409 -0.356172 0.780535 0.258293
-0.033067 -0.017671 0.032759 0.938859 0.309769 0.150292 0.808306 0.055861
-0.026452 -0.018487 -0.006885 0.938859 0.309769 0.150292 0.989299 0.030318
-0.032003 -0.005971 0.001996 0.938859 0.309769 0.150292 0.958581 0.093052
-0.033067 -0.017671 0.032759 0.848750 0.512289 0.131088 0.808306 0.055861
-0.028062 -0.023691 0.023877 0.848750 0.512289 0.131088 0.845083 0.023780
-0.026452 -0.018487 -0.006885 0.848750 0.512289 0.131088 0.989299 0.030318
0.014645 0.025521 -0.048865 0.052306 0.074279 -0.995865 0.691883 0.469690
0.009713 0.009136 -0.050346 0.052306 0.074279 -0.995865 0.768204 0.477583
-0.000669 0.028123 -0.049475 0.052306 0.074279 -0.995865 0.691169 0.540998
-0.000669 0.028123 -0.049475 -0.003055 0.044152 -0.999020 0.691169 0.540998
0.009713 0.009136 -0.050346 -0.003055 0.044152 -0.999020 0.768204 0.477583
-0.001371 0.005337 -0.050480 -0.003055 0.044152 -0.999020 0.795051 0.524377
-0.000669 0.028123 -0.049475 0.008250 0.043803 -0.999006 0.691169 0.540998
-0.001371 0.005337 -0.050480 0.008250 0.043803 -0.999006 0.795051 0.524377
-0.022351 0.016768 -0.050152 0.008250 0.043803 -0.999006 0.762266 0.628168
0.026830 0.019356 -0.030754 0.844974 0.522253 -0.115200 0.093050 0.686750
0.028929 0.011811 -0.049566 0.844974 0.522253 -0.115200 0.007029 0.722059
0.025671 0.018063 -0.045115 0.844974 0.522253 -0.115200 0.026393 0.693580
0.023810 0.021857 -0.036283 0.664051 0.730294 -0.160331 0.727462 0.045883
0.025768 0.018130 -0.045150 0.664051 0.730294 -0.160331 0.767934 0.036932
0.023119 0.019423 -0.050232 0.664051 0.730294 -0.160331 0.791346 0.050185
0.023810 0.021857 -0.036283 0.555275 0.814194 -0.169583 0.727462 0.045883
0.023119 0.019423 -0.050232 0.555275 0.814194 -0.169583 0.791346 0.050185
0.012174 0.026834 -0.050489 0.555275 0.814194 -0.169583 0.792386 0.101584
-0.031317 -0.026457 0.035610 -0.737533 -0.663297 -0.126815 0.422000 0.388050
-0.027284 -0.026577 0.012783 -0.737533 -0.663297 -0.126815 0.426996 0.492110
-0.028346 -0.028769 0.030425 -0.737533 -0.663297 -0.126815 0.412277 0.411323
-0.031317 -0.026457 0.035610 -0.475407 -0.876177 -0.079389 0.422000 0.388050
-0.027218 -0.024762 -0.007646 -0.475407 -0.876177 -0.079389 0.459849 0.597194
-0.027284 -0.026577 0.012783 -0.475407 -0.876177 -0.079389 0.426996 0.492110
-0.027092 -0.030542 0.030834 0.668737 0.743460 0.007633 0.331339 0.092866
-0.031867 -0.026283 0.034379 0.668737 0.743460 0.007633 0.324238 0.060875
-0.022273 -0.034913 0.034378 0.668737 0.743460 0.007633 0.350644 0.111940
0.028929 0.011811 -0.049566 0.947372 0.292257 -0.130658 0.007029 0.722059
0.037433 0.003238 -0.007076 0.947372 0.292257 -0.130658 0.207709 0.761899
0.032314 0.000928 -0.049359 0.947372 0.292257 -0.130658 0.010051 0.772387
0.035487 -0.019538 0.034215 -0.729870 0.560791 0.390900 0.459963 0.385202
0.028615 -0.029067 0.035055 -0.729870 0.560791 0.390900 0.413624 0.379443
0.036003 -0.019661 0.035356 -0.729870 0.560791 0.390900 0.457787 0.374497
0.037108 -0.014085 0.033781 -0.948585 0.274248 0.158035 0.864430 0.984524
0.034966 -0.001990 -0.000064 -0.948585 0.274248 0.158035 0.808460 0.825897
0.030189 -0.017785 -0.001328 -0.948585 0.274248 0.158035 0.881223 0.820851
0.037108 -0.014085 0.033781 -0.843822 0.525026 0.110958 0.864430 0.984524
0.030189 -0.017785 -0.001328 -0.843822 0.525026 0.110958 0.881223 0.820851
0.032830 -0.020900 0.033495 -0.843822 0.525026 0.110958 0.896875 0.980920
0.014645 0.025521 -0.048865 -0.102179 0.120024 -0.987499 0.691883 0.469690
0.027558 0.015358 -0.051436 -0.102179 0.120024 -0.987499 0.728047 0.406583
0.009713 0.009136 -0.050346 -0.102179 0.120024 -0.987499 0.768204 0.477583
-0.033347 0.000744 -0.013918 -0.923942 0.366772 -0.108670 0.560787 0.605830
-0.022619 0.020328 -0.039029 -0.923942 0.366772 -0.108670 0.653638 0.715380
-0.027838 0.003909 -0.050071 -0.923942 0.366772 -0.108670 0.583405 0.773606
-0.032021 -0.025695 0.032639 0.383965 0.847200 0.367183 0.798602 0.026473
-0.023931 -0.029626 0.033251 0.383965 0.847200 0.367183 0.798024 0.002236
-0.028062 -0.023691 0.023877 0.383965 0.847200 0.367183 0.845083 0.023780
0.037433 0.003238 -0.007076 0.973524 -0.195628 -0.118241 0.207709 0.761899
0.040778 -0.006275 0.036204 0.973524 -0.195628 -0.118241 0.404586 0.797611
0.028847 -0.017046 -0.044211 0.973524 -0.195628 -0.118241 0.034038 0.855094
0.025671 0.018063 -0.045115 0.782170 0.576234 -0.236989 0.026393 0.693580
0.028929 0.011811 -0.049566 0.782170 0.576234 -0.236989 0.007029 0.722059
0.023119 0.019423 -0.050232 0.782170 0.576234 -0.236989 0.002236 0.688156
0.036197 -0.017349 0.035732 0.060023 -0.275074 0.959548 0.222520 0.357068
0.030504 -0.024171 0.034132 0.060023 -0.275074 0.959548 0.252975 0.347638
0.035877 -0.020356 0.034890 0.060023 -0.275074 0.959548 0.236595 0.358576
-0.022619 0.020328 -0.039029 -0.860683 0.442702 -0.251475 0.653638 0.715380
-0.021915 0.015228 -0.050416 -0.860683 0.442702 -0.251475 0.639384 0.771080
-0.027838 0.003909 -0.050071 -0.860683 0.442702 -0.251475 0.583405 0.773606
-0.027284 -0.026577 0.012783 -0.687204 -0.714707 -0.130174 0.426996 0.492110
-0.024625 -0.029796 0.016420 -0.687204 -0.714707 -0.130174 0.411660 0.475762
-0.028346 -0.028769 0.030425 -0.687204 -0.714707 -0.130174 0.412277 0.411323
-0.028062 -0.023691 0.023877 0.722040 0.679290 0.131241 0.411660 0.831657
-0.024052 -0.029762 0.033237 0.722040 0.679290 0.131241 0.433450 0.787346
-0.023357 -0.025750 0.008649 0.722040 0.679290 0.131241 0.429752 0.902434
-0.028062 -0.023691 0.023877 0.756176 0.637543 0.147433 0.845083 0.023780
-0.023357 -0.025750 0.008649 0.756176 0.637543 0.147433 0.913284 0.006198
-0.026452 -0.018487 -0.006885 0.756176 0.637543 0.147433 0.989299 0.030318
-0.022351 0.016768 -0.050152 0.093035 -0.047016 -0.994552 0.762266 0.628168
-0.027293 -0.007444 -0.049470 0.093035 -0.047016 -0.994552 0.875380 0.630480
-0.027449 0.004711 -0.050059 0.093035 -0.047016 -0.994552 0.820507 0.641775
-0.022351 0.016768 -0.050152 -0.012576 0.005603 -0.999905 0.762266 0.628168
-0.001371 0.005337 -0.050480 -0.012576 0.005603 -0.999905 0.795051 0.524377
-0.007840 -0.006505 -0.050465 -0.012576 0.005603 -0.999905 0.854090 0.543430
-0.022351 0.016768 -0.050152 -0.050220 -0.017887 -0.998578 0.762266 0.628168
-0.007840 -0.006505 -0.050465 -0.050220 -0.017887 -0.998578 0.854090 0.543430
-0.027293 -0.007444 -0.049470 -0.050220 -0.017887 -0.998578 0.875380 0.630480
-0.030158 -0.027082 0.035228 -0.561135 -0.826325 -0.048104 0.396071 0.644115
-0.024597 -0.029763 0.016423 -0.561135 -0.826325 -0.048104 0.312283 0.615856
-0.008914 -0.041540 0.035780 -0.561135 -0.826325 -0.048104 0.401389 0.540722
-0.026452 -0.018487 -0.006885 0.780502 0.611409 0.130367 0.989299 0.030318
-0.023357 -0.025750 0.008649 0.780502 0.611409 0.130367 0.913284 0.006198
-0.021838 -0.024311 -0.007192 0.780502 0.611409 0.130367 0.989137 0.004457
0.035538 -0.019990 0.034947 0.762881 -0.628898 -0.149997 0.402660 0.861639
0.032861 -0.023432 0.035766 0.762881 -0.628898 -0.149997 0.405695 0.878209
0.028105 -0.028596 0.033227 0.762881 -0.628898 -0.149997 0.393563 0.905590
-0.033347 0.000744 -0.013918 -0.962267 -0.254748 -0.095635 0.560787 0.605830
-0.026920 -0.009817 -0.050447 -0.962267 -0.254748 -0.095635 0.521938 0.777610
-0.027218 -0.024762 -0.007646 -0.962267 -0.254748 -0.095635 0.459849 0.597194
0.040778 -0.006275 0.036204 0.932956 -0.348090 -0.091800 0.404586 0.797611
0.035538 -0.019990 0.034947 0.932956 -0.348090 -0.091800 0.402660 0.861639
0.028847 -0.017046 -0.044211 0.932956 -0.348090 -0.091800 0.034038 0.855094
0.035538 -0.019990 0.034947 0.761116 -0.646216 -0.055744 0.402660 0.861639
0.028105 -0.028596 0.033227 0.761116 -0.646216 -0.055744 0.393563 0.905590
0.028992 -0.024870 0.002159 0.761116 -0.646216 -0.055744 0.249512 0.887710
-0.033347 0.000744 -0.013918 -0.985891 -0.061655 -0.155617 0.560787 0.605830
-0.027838 0.003909 -0.050071 -0.985891 -0.061655 -0.155617 0.583405 0.773606
-0.026920 -0.009817 -0.050447 -0.985891 -0.061655 -0.155617 0.521938 0.777610
-0.027092 -0.030542 0.030834 0.252496 0.761933 0.596409 0.331339 0.092866
-0.022273 -0.034913 0.034378 0.252496 0.761933 0.596409 0.350644 0.111940
-0.006867 -0.040311 0.034752 0.252496 0.761933 0.596409 0.363628 0.182393
0.030504 -0.024171 0.034132 0.010888 0.024593 0.999638 0.261212 0.338199
0.016813 -0.036949 0.034596 0.010888 0.024593 0.999638 0.327581 0.286986
0.029542 -0.028851 0.034258 0.010888 0.024593 0.999638 0.280906 0.338005
0.035538 -0.019990 0.034947 0.846875 -0.523938 -0.091064 0.402660 0.861639
0.028992 -0.024870 0.002159 0.846875 -0.523938 -0.091064 0.249512 0.887710
0.028847 -0.017046 -0.044211 0.846875 -0.523938 -0.091064 0.034038 0.855094
0.032830 -0.020900 0.033495 -0.805866 0.581195 0.113105 0.896875 0.980920
0.030189 -0.017785 -0.001328 -0.805866 0.581195 0.113105 0.881223 0.820851
0.026641 -0.024255 0.006638 -0.805866 0.581195 0.113105 0.911896 0.855856
-0.023694 -0.030669 0.033012 0.030999 0.258804 0.965432 0.380232 0.243815
-0.016241 -0.037081 0.034491 0.030999 0.258804 0.965432 0.373041 0.207386
0.000907 -0.038651 0.034361 0.030999 0.258804 0.965432 0.379166 0.131509
0.032830 -0.020900 0.033495 -0.762295 0.636314 0.118370 0.896875 0.980920
0.024496 -0.028411 0.020200 -0.762295 0.636314 0.118370 0.931708 0.918186
0.026591 -0.028465 0.033982 -0.762295 0.636314 0.118370 0.932405 0.982329
0.032830 -0.020900 0.033495 -0.740131 0.666776 0.087269 0.896875 0.980920
0.026641 -0.024255 0.006638 -0.740131 0.666776 0.087269 0.911896 0.855856
0.024496 -0.028411 0.020200 -0.740131 0.666776 0.087269 0.931708 0.918186
-0.023357 -0.025750 0.008649 0.818571 0.562783 0.114962 0.429752 0.902434
-0.024052 -0.029762 0.033237 0.818571 0.562783 0.114962 0.433450 0.787346
-0.021660 -0.024841 -0.007884 0.818571 0.562783 0.114962 0.434325 0.979746
0.028105 -0.028596 0.033227 0.751967 -0.656709 -0.057264 0.393563 0.905590
0.025574 -0.029500 0.010362 0.751967 -0.656709 -0.057264 0.287390 0.908521
0.028992 -0.024870 0.002159 0.751967 -0.656709 -0.057264 0.249512 0.887710
0.029426 -0.029314 0.034146 0.615378 -0.782660 -0.093559 0.393934 0.367350
0.020718 -0.036414 0.036260 0.615378 -0.782660 -0.093559 0.406721 0.407130
0.025574 -0.029500 0.010362 0.615378 -0.782660 -0.093559 0.284812 0.384825
-0.027016 -0.026336 0.012855 -0.746535 -0.654042 -0.122122 0.294453 0.627663
-0.025273 -0.023422 -0.013407 -0.746535 -0.654042 -0.122122 0.172201 0.618813
-0.024597 -0.029763 0.016423 -0.746535 -0.654042 -0.122122 0.312283 0.615856
-0.024052 -0.029762 0.033237 0.453798 0.881295 0.131856 0.433450 0.787346
-0.005188 -0.039484 0.033294 0.453798 0.881295 0.131856 0.522794 0.788718
-0.021660 -0.024841 -0.007884 0.453798 0.881295 0.131856 0.434325 0.979746
-0.016241 -0.037081 0.034491 0.074492 0.760264 0.645330 0.373041 0.207386
0.004833 -0.040112 0.035630 0.074492 0.760264 0.645330 0.371499 0.113199
0.000907 -0.038651 0.034361 0.074492 0.760264 0.645330 0.379166 0.131509
0.024496 -0.028411 0.020200 -0.631384 0.763772 0.134192 0.652829 0.859985
0.026641 -0.024255 0.006638 -0.631384 0.763772 0.134192 0.659016 0.924534
0.015918 -0.031928 -0.000141 -0.631384 0.763772 0.134192 0.607371 0.950093
0.024496 -0.028411 0.020200 -0.535266 0.840855 0.080331 0.652829 0.859985
0.015918 -0.031928 -0.000141 -0.535266 0.840855 0.080331 0.607371 0.950093
0.026363 -0.028591 0.034527 -0.535266 0.840855 0.080331 0.664807 0.796600
0.026363 -0.028591 0.034527 -0.569254 0.816899 0.092877 0.664807 0.796600
0.015918 -0.031928 -0.000141 -0.569254 0.816899 0.092877 0.607371 0.950093
0.015623 -0.035961 0.033520 -0.569254 0.816899 0.092877 0.615314 0.794214
-0.027218 -0.024762 -0.007646 -0.828823 -0.526419 -0.189569 0.459849 0.597194
-0.026920 -0.009817 -0.050447 -0.828823 -0.526419 -0.189569 0.521938 0.777610
-0.021676 -0.021216 -0.041723 -0.828823 -0.526419 -0.189569 0.466577 0.741952
-0.025273 -0.023422 -0.013407 -0.814915 -0.570392 -0.102791 0.172201 0.618813
-0.022662 -0.022011 -0.041935 -0.814915 -0.570392 -0.102791 0.040110 0.605575
-0.024597 -0.029763 0.016423 -0.814915 -0.570392 -0.102791 0.312283 0.615856
0.026641 -0.024255 0.006638 -0.770124 0.617819 0.158775 0.911896 0.855856
0.030189 -0.017785 -0.001328 -0.770124 0.617819 0.158775 0.881223 0.820851
0.023867 -0.026138 0.000510 -0.770124 0.617819 0.158775 0.920467 0.826989
0.026641 -0.024255 0.006638 -0.589686 0.807413 0.018837 0.659016 0.924534
0.023867 -0.026138 0.000510 -0.589686 0.807413 0.018837 0.644929 0.951509
0.015918 -0.031928 -0.000141 -0.589686 0.807413 0.018837 0.607371 0.950093
0.016813 -0.036949 0.034596 -0.100278 0.478245 0.872482 0.327581 0.286986
0.012462 -0.036973 0.034109 -0.100278 0.478245 0.872482 0.333417 0.268601
0.005379 -0.040416 0.035182 -0.100278 0.478245 0.872482 0.354110 0.244255
-0.024597 -0.029763 0.016423 -0.503926 -0.856359 -0.112731 0.312283 0.615856
-0.016120 -0.026688 -0.044833 -0.503926 -0.856359 -0.112731 0.028127 0.576623
-0.008914 -0.041540 0.035780 -0.503926 -0.856359 -0.112731 0.401389 0.540722
0.028847 -0.017046 -0.044211 0.786967 -0.607986 -0.105057 0.034038 0.855094
0.028992 -0.024870 0.002159 0.786967 -0.607986 -0.105057 0.249512 0.887710
0.027677 -0.023632 -0.014862 0.786967 -0.607986 -0.105057 0.170364 0.883318
0.013082 -0.036800 0.033818 -0.050709 0.573453 0.817668 0.380597 0.078643
0.000907 -0.038651 0.034361 -0.050709 0.573453 0.817668 0.379166 0.131509
0.004833 -0.040112 0.035630 -0.050709 0.573453 0.817668 0.371499 0.113199
0.032314 0.000928 -0.049359 0.980303 -0.164225 -0.109707 0.010051 0.772387
0.037433 0.003238 -0.007076 0.980303 -0.164225 -0.109707 0.207709 0.761899
0.029452 -0.015892 -0.049760 0.980303 -0.164225 -0.109707 0.008321 0.850266
-0.021660 -0.024841 -0.007884 0.419523 0.895181 0.150505 0.434325 0.979746
-0.005188 -0.039484 0.033294 0.419523 0.895181 0.150505 0.522794 0.788718
-0.006350 -0.032516 -0.004907 0.419523 0.895181 0.150505 0.503210 0.964012
0.037433 0.003238 -0.007076 0.911449 -0.411180 0.013852 0.207709 0.761899
0.028847 -0.017046 -0.044211 0.911449 -0.411180 0.013852 0.034038 0.855094
0.029452 -0.015892 -0.049760 0.911449 -0.411180 0.013852 0.008321 0.850266
0.028992 -0.024870 0.002159 0.701612 -0.704706 -0.105497 0.249512 0.887710
0.023892 -0.028754 -0.005820 0.701612 -0.704706 -0.105497 0.212102 0.906426
0.027677 -0.023632 -0.014862 0.701612 -0.704706 -0.105497 0.170364 0.883318
0.029009 -0.024887 0.002156 0.699453 -0.706977 -0.104639 0.245337 0.369209
0.025574 -0.029500 0.010362 0.699453 -0.706977 -0.104639 0.284812 0.384825
0.023899 -0.028762 -0.005821 0.699453 -0.706977 -0.104639 0.209715 0.392361
0.025574 -0.029500 0.010362 0.602478 -0.792036 -0.098481 0.284812 0.384825
0.020718 -0.036414 0.036260 0.602478 -0.792036 -0.098481 0.406721 0.407130
0.023899 -0.028762 -0.005821 0.602478 -0.792036 -0.098481 0.209715 0.392361
-0.005188 -0.039484 0.033294 -0.167019 0.979126 0.115835 0.522794 0.788718
0.015623 -0.035961 0.033520 -0.167019 0.979126 0.115835 0.615314 0.794214
0.015918 -0.031928 -0.000141 -0.167019 0.979126 0.115835 0.607371 0.950093
-0.005188 -0.039484 0.033294 -0.146730 0.980728 0.129005 0.522794 0.788718
0.015918 -0.031928 -0.000141 -0.146730 0.980728 0.129005 0.607371 0.950093
-0.003690 -0.034584 -0.002253 -0.146730 0.980728 0.129005 0.518253 0.954660
-0.024597 -0.029763 0.016423 -0.612850 -0.780411 -0.123992 0.312283 0.615856
-0.022662 -0.022011 -0.041935 -0.612850 -0.780411 -0.123992 0.040110 0.605575
-0.016120 -0.026688 -0.044833 -0.612850 -0.780411 -0.123992 0.028127 0.576623
0.020718 -0.036414 0.036260 0.352611 -0.928817 -0.113867 0.406721 0.407130
0.009039 -0.040730 0.035297 0.352611 -0.928817 -0.113867 0.403830 0.461883
0.023199 -0.024917 -0.049839 0.352611 -0.928817 -0.113867 0.007454 0.399112
0.020718 -0.036414 0.036260 0.716533 -0.693827 -0.072001 0.406721 0.407130
0.023199 -0.024917 -0.049839 0.716533 -0.693827 -0.072001 0.007454 0.399112
0.023899 -0.028762 -0.005821 0.716533 -0.693827 -0.072001 0.209715 0.392361
-0.005188 -0.039484 0.033294 0.518194 0.844028 0.138171 0.522794 0.788718
-0.003690 -0.034584 -0.002253 0.518194 0.844028 0.138171 0.518253 0.954660
-0.006350 -0.032516 -0.004907 0.518194 0.844028 0.138171 0.503210 0.964012
0.027677 -0.023632 -0.014862 0.715776 -0.692034 -0.093562 0.166209 0.375160
0.023899 -0.028762 -0.005821 0.715776 -0.692034 -0.093562 0.209715 0.392361
0.024699 -0.024728 -0.029538 0.715776 -0.692034 -0.093562 0.098687 0.388558
0.027677 -0.023632 -0.014862 0.771696 -0.626441 -0.109807 0.170364 0.883318
0.024699 -0.024728 -0.029538 0.771696 -0.626441 -0.109807 0.102007 0.889663
0.028847 -0.017046 -0.044211 0.771696 -0.626441 -0.109807 0.034038 0.855094
-0.027293 -0.007444 -0.049470 -0.050872 -0.004502 -0.998695 0.875380 0.630480
-0.007840 -0.006505 -0.050465 -0.050872 -0.004502 -0.998695 0.854090 0.543430
-0.007445 -0.031046 -0.050374 -0.050872 -0.004502 -0.998695 0.960258 0.520750
-0.027293 -0.007444 -0.049470 0.172534 0.182196 -0.968006 0.875380 0.630480
-0.007445 -0.031046 -0.050374 0.172534 0.182196 -0.968006 0.960258 0.520750
-0.019325 -0.025230 -0.051397 0.172534 0.182196 -0.968006 0.940298 0.575059
-0.008914 -0.041540 0.035780 0.041987 -0.993369 -0.107031 0.401389 0.540722
0.002103 -0.031841 -0.049915 0.041987 -0.993369 -0.107031 0.007527 0.492326
0.009039 -0.040730 0.035297 0.041987 -0.993369 -0.107031 0.403830 0.461883
0.009039 -0.040730 0.035297 0.309888 -0.942711 -0.123553 0.403830 0.461883
0.002103 -0.031841 -0.049915 0.309888 -0.942711 -0.123553 0.007527 0.492326
0.023199 -0.024917 -0.049839 0.309888 -0.942711 -0.123553 0.007454 0.399112
-0.026920 -0.009817 -0.050447 -0.859958 -0.494249 0.127241 0.521938 0.777610
-0.018354 -0.024535 -0.049723 -0.859958 -0.494249 0.127241 0.457147 0.778625
-0.016266 -0.026922 -0.044883 -0.859958 -0.494249 0.127241 0.442439 0.757044
-0.026920 -0.009817 -0.050447 -0.769415 -0.571833 -0.284618 0.521938 0.777610
-0.016266 -0.026922 -0.044883 -0.769415 -0.571833 -0.284618 0.442439 0.757044
-0.021676 -0.021216 -0.041723 -0.769415 -0.571833 -0.284618 0.466577 0.741952
-0.008914 -0.041540 0.035780 -0.464304 -0.877486 -0.120166 0.401389 0.540722
-0.016120 -0.026688 -0.044833 -0.464304 -0.877486 -0.120166 0.028127 0.576623
-0.007945 -0.030333 -0.049800 -0.464304 -0.877486 -0.120166 0.007754 0.538128
-0.008914 -0.041540 0.035780 -0.148639 -0.980301 -0.130059 0.401389 0.540722
-0.007945 -0.030333 -0.049800 -0.148639 -0.980301 -0.130059 0.007754 0.538128
0.002103 -0.031841 -0.049915 -0.148639 -0.980301 -0.130059 0.007527 0.492326
0.028847 -0.017046 -0.044211 0.801478 -0.592173 -0.083448 0.034038 0.855094
0.024699 -0.024728 -0.029538 0.801478 -0.592173 -0.083448 0.102007 0.889663
0.025331 -0.022142 -0.041819 0.801478 -0.592173 -0.083448 0.044993 0.878661
0.029442 -0.015869 -0.050967 0.001817 0.076474 -0.997070 0.863552 0.366823
0.013325 -0.004844 -0.050151 0.001817 0.076474 -0.997070 0.828028 0.449280
0.033068 0.000600 -0.049697 0.001817 0.076474 -0.997070 0.786206 0.367080
0.023899 -0.028762 -0.005821 0.856059 -0.513560 -0.058473 0.209715 0.392361
0.023199 -0.024917 -0.049839 0.856059 -0.513560 -0.058473 0.007454 0.399112
0.024699 -0.024728 -0.029538 0.856059 -0.513560 -0.058473 0.098687 0.388558
0.028793 -0.017035 -0.044280 0.670921 -0.737942 -0.072845 0.027947 0.370022
0.026307 -0.018752 -0.049783 0.670921 -0.737942 -0.072845 0.003058 0.381258
0.029452 -0.015895 -0.049759 0.670921 -0.737942 -0.072845 0.002236 0.366982
0.028847 -0.017046 -0.044211 0.773718 -0.611534 -0.165489 0.034038 0.855094
0.025331 -0.022142 -0.041819 0.773718 -0.611534 -0.165489 0.044993 0.878661
0.026307 -0.018752 -0.049783 0.773718 -0.611534 -0.165489 0.007960 0.863612
0.024699 -0.024728 -0.029538 0.867204 -0.494388 -0.059475 0.098687 0.388558
0.023199 -0.024917 -0.049839 0.867204 -0.494388 -0.059475 0.007454 0.399112
0.025331 -0.022142 -0.041819 0.867204 -0.494388 -0.059475 0.041030 0.385637
0.025331 -0.022142 -0.041819 0.773448 -0.611832 -0.165649 0.044993 0.878661
0.022568 -0.023643 -0.049176 0.773448 -0.611832 -0.165649 0.010610 0.886300
0.026307 -0.018752 -0.049783 0.773448 -0.611832 -0.165649 0.007960 0.863612
-0.016120 -0.026688 -0.044833 -0.523724 -0.808429 -0.268618 0.028127 0.576623
-0.017786 -0.024001 -0.049671 -0.523724 -0.808429 -0.268618 0.004817 0.583766
-0.007945 -0.030333 -0.049800 -0.523724 -0.808429 -0.268618 0.007754 0.538128
0.029442 -0.015869 -0.050967 0.252727 -0.302756 -0.918949 0.863552 0.366823
0.022913 -0.024154 -0.050033 0.252727 -0.302756 -0.918949 0.904780 0.391898
0.004129 -0.033245 -0.052204 0.252727 -0.302756 -0.918949 0.957017 0.470326
0.029442 -0.015869 -0.050967 -0.000977 0.072413 -0.997374 0.863552 0.366823
0.004129 -0.033245 -0.052204 -0.000977 0.072413 -0.997374 0.957017 0.470326
0.013325 -0.004844 -0.050151 -0.000977 0.072413 -0.997374 0.828028 0.449280
-0.007445 -0.031046 -0.050374 -0.143515 0.066159 -0.987434 0.960258 0.520750
-0.001943 -0.017730 -0.050282 -0.143515 0.066159 -0.987434 0.899501 0.507170
0.004129 -0.033245 -0.052204 -0.143515 0.066159 -0.987434 0.957017 0.470326
-0.007445 -0.031046 -0.050374 0.024762 -0.003289 -0.999688 0.960258 0.520750
-0.007840 -0.006505 -0.050465 0.024762 -0.003289 -0.999688 0.854090 0.543430
-0.001943 -0.017730 -0.050282 0.024762 -0.003289 -0.999688 0.899501 0.507170
0.004129 -0.033245 -0.052204 -0.071632 0.094967 -0.992900 0.957017 0.470326
-0.001943 -0.017730 -0.050282 -0.071632 0.094967 -0.992900 0.899501 0.507170
0.013325 -0.004844 -0.050151 -0.071632 0.094967 -0.992900 0.828028 0.449280
0.033068 0.000600 -0.049697 0.049979 -0.098443 -0.993887 0.786206 0.367080
0.013325 -0.004844 -0.050151 0.049979 -0.098443 -0.993887 0.828028 0.449280
0.027558 0.015358 -0.051436 0.049979 -0.098443 -0.993887 0.728047 0.406583
0.009713 0.009136 -0.050346 -0.051499 -0.027230 -0.998302 0.768204 0.477583
0.027558 0.015358 -0.051436 -0.051499 -0.027230 -0.998302 0.728047 0.406583
0.013325 -0.004844 -0.050151 -0.051499 -0.027230 -0.998302 0.828028 0.449280
0.009713 0.009136 -0.050346 0.015495 -0.009942 -0.999830 0.768204 0.477583
0.013325 -0.004844 -0.050151 0.015495 -0.009942 -0.999830 0.828028 0.449280
-0.001371 0.005337 -0.050480 0.015495 -0.009942 -0.999830 0.795051 0.524377
-0.001371 0.005337 -0.050480 0.015601 -0.009789 -0.999830 0.795051 0.524377
0.013325 -0.004844 -0.050151 0.015601 -0.009789 -0.999830 0.828028 0.449280
-0.007840 -0.006505 -0.050465 0.015601 -0.009789 -0.999830 0.854090 0.543430
-0.007840 -0.006505 -0.050465 0.015475 -0.008171 -0.999847 0.854090 0.543430
0.013325 -0.004844 -0.050151 0.015475 -0.008171 -0.999847 0.828028 0.449280
-0.001943 -0.017730 -0.050282 0.015475 -0.008171 -0.999847 0.899501 0.507170
3 0 1 2
3 3 4 5
3 6 7 8
3 9 10 11
3 12 13 14
3 15 16 17
3 18 19 20
3 21 22 23
3 24 25 26
3 27 28 29
3 30 31 32
3 33 34 35
3 36 37 38
3 39 40 41
3 42 43 44
3 45 46 47
3 48 49 50
3 51 52 53
3 54 55 56
3 57 58 59
3 60 61 62
3 63 64 65
3 66 67 68
3 69 70 71
3 72 73 74
3 75 76 77
3 78 79 80
3 81 82 83
3 84 85 86
3 87 88 89
3 90 91 92
3 93 94 95
3 96 97 98
3 99 100 101
3 102 103 104
3 105 106 107
3 108 109 110
3 111 112 113
3 114 115 116
3 117 118 119
3 120 121 122
3 123 124 125
3 126 127 128
3 129 130 131
3 132 133 134
3 135 136 137
3 138 139 140
3 141 142 143
3 144 145 146
3 147 148 149
3 150 151 152
3 153 154 155
3 156 157 158
3 159 160 161
3 162 163 164
3 165 166 167
3 168 169 170
3 171 172 173
3 174 175 176
3 177 178 179
3 180 181 182
3 183 184 185
3 186 187 188
3 189 190 191
3 192 193 194
3 195 196 197
3 198 199 200
3 201 202 203
3 204 205 206
3 207 208 209
3 210 211 212
3 213 214 215
3 216 217 218
3 219 220 221
3 222 223 224
3 225 226 227
3 228 229 230
3 231 232 233
3 234 235 236
3 237 238 239
3 240 241 242
3 243 244 245
3 246 247 248
3 249 250 251
3 252 253 254
3 255 256 257
3 258 259 260
3 261 262 263
3 264 265 266
3 267 268 269
3 270 271 272
3 273 274 275
3 276 277 278
3 279 280 281
3 282 283 284
3 285 286 287
3 288 289 290
3 291 292 293
3 294 295 296
3 297 298 299
3 300 301 302
3 303 304 305
3 306 307 308
3 309 310 311
3 312 313 314
3 315 316 317
3 318 319 320
3 321 322 323
3 324 325 326
3 327 328 329
3 330 331 332
3 333 334 335
3 336 337 338
3 339 340 341
3 342 343 344
3 345 346 347
3 348 349 350
3 351 352 353
3 354 355 356
3 357 358 359
3 360 361 362
3 363 364 365
3 366 367 368
3 369 370 371
3 372 373 374
3 375 376 377
3 378 379 380
3 381 382 383
3 384 385 386
3 387 388 389
3 390 391 392
3 393 394 395
3 396 397 398
3 399 400 401
3 402 403 404
3 405 406 407
3 408 409 410
3 411 412 413
3 414 415 416
3 417 418 419
3 420 421 422
3 423 424 425
3 426 427 428
3 429 430 431
3 432 433 434
3 435 436 437
3 438 439 440
3 441 442 443
3 444 445 446
3 447 448 449
3 450 451 452
3 453 454 455
3 456 457 458
3 459 460 461
3 462 463 464
3 465 466 467
3 468 469 470
3 471 472 473
3 474 475 476
3 477 478 479
3 480 481 482
3 483 484 485
3 486 487 488
3 489 490 491
3 492 493 494
3 495 496 497
3 498 499 500
3 501 502 503
3 504 505 506
3 507 508 509
3 510 511 512
3 513 514 515
3 516 517 518
3 519 520 521
3 522 523 524
3 525 526 527
3 528 529 530
3 531 532 533
3 534 535 536
3 537 538 539
3 540 541 542
3 543 544 545
3 546 547 548
3 549 550 551
3 552 553 554
3 555 556 557
3 558 559 560
3 561 562 563
3 564 565 566
3 567 568 569
3 570 571 572
3 573 574 575
3 576 577 578
3 579 580 581
3 582 583 584
3 585 586 587
3 588 589 590
3 591 592 593
3 594 595 596
